<svg width="201" height="52" viewBox="0 0 201 52" fill="none" xmlns="http://www.w3.org/2000/svg">
<g clip-path="url(#clip0_166_135)">
<path d="M8.66663 52.0017C13.4506 52.0017 17.3333 48.1191 17.3333 43.3351V34.6685H8.66663C3.88265 34.6685 0 38.5511 0 43.3351C0 48.1191 3.88265 52.0017 8.66663 52.0017Z" fill="#0ACF83"/>
<path d="M0 26.0021C0 21.2181 3.88265 17.3354 8.66663 17.3354H17.3333V34.6687H8.66663C3.88265 34.6687 0 30.7861 0 26.0021Z" fill="#A259FF"/>
<path d="M0 8.66859C0 3.88461 3.88265 0.00195312 8.66663 0.00195312H17.3333V17.3352H8.66663C3.88265 17.3352 0 13.4526 0 8.66859Z" fill="#F24E1E"/>
<path d="M17.333 0.00195312H25.9996C30.7836 0.00195312 34.6663 3.88461 34.6663 8.66859C34.6663 13.4526 30.7836 17.3352 25.9996 17.3352H17.333V0.00195312Z" fill="#FF7262"/>
<path d="M34.6663 26.0021C34.6663 30.7861 30.7836 34.6687 25.9996 34.6687C21.2157 34.6687 17.333 30.7861 17.333 26.0021C17.333 21.2181 21.2157 17.3354 25.9996 17.3354C30.7836 17.3354 34.6663 21.2181 34.6663 26.0021Z" fill="#1ABCFE"/>
</g>
<path d="M63.656 3.00995C63.592 3.72995 63.544 4.42595 63.512 5.09795C63.496 5.76995 63.488 6.28995 63.488 6.65795C63.488 7.00995 63.496 7.34595 63.512 7.66595C63.528 7.98595 63.544 8.25795 63.56 8.48195H63.008C62.8 7.23395 62.512 6.25795 62.144 5.55395C61.776 4.83395 61.32 4.32195 60.776 4.01795C60.248 3.71395 59.616 3.56195 58.88 3.56195H58.088C57.624 3.56195 57.272 3.60195 57.032 3.68195C56.792 3.76195 56.632 3.92195 56.552 4.16195C56.472 4.40195 56.432 4.76995 56.432 5.26595V17.314C56.432 17.938 56.496 18.402 56.624 18.706C56.752 19.01 57 19.21 57.368 19.306C57.736 19.402 58.28 19.458 59 19.474V20.002C58.504 19.986 57.864 19.97 57.08 19.954C56.296 19.938 55.472 19.93 54.608 19.93C53.92 19.93 53.248 19.938 52.592 19.954C51.936 19.97 51.344 19.986 50.816 20.002V19.522C51.328 19.49 51.712 19.426 51.968 19.33C52.224 19.234 52.392 19.042 52.472 18.754C52.568 18.466 52.616 18.034 52.616 17.458V5.55395C52.616 4.96195 52.568 4.52995 52.472 4.25795C52.392 3.96995 52.216 3.77795 51.944 3.68195C51.688 3.56995 51.312 3.50595 50.816 3.48995V3.00995C51.472 3.02595 52.168 3.04195 52.904 3.05795C53.64 3.05795 54.368 3.06595 55.088 3.08195C55.808 3.08195 56.48 3.08195 57.104 3.08195C57.728 3.08195 58.24 3.08195 58.64 3.08195C59.376 3.08195 60.208 3.08195 61.136 3.08195C62.08 3.06595 62.92 3.04195 63.656 3.00995ZM60.08 11.314C60.08 11.314 60.08 11.394 60.08 11.554C60.08 11.714 60.08 11.794 60.08 11.794H55.712C55.712 11.794 55.712 11.714 55.712 11.554C55.712 11.394 55.712 11.314 55.712 11.314H60.08ZM60.68 8.14595C60.616 9.05795 60.584 9.75395 60.584 10.234C60.6 10.714 60.608 11.154 60.608 11.554C60.608 11.954 60.616 12.394 60.632 12.874C60.648 13.354 60.688 14.05 60.752 14.962H60.2C60.104 14.402 59.952 13.882 59.744 13.402C59.536 12.922 59.232 12.538 58.832 12.25C58.432 11.946 57.912 11.794 57.272 11.794V11.314C57.752 11.314 58.152 11.218 58.472 11.026C58.808 10.818 59.088 10.554 59.312 10.234C59.536 9.89795 59.712 9.54595 59.84 9.17795C59.968 8.80995 60.064 8.46595 60.128 8.14595H60.68ZM67.8991 1.40195C68.5711 1.40195 69.0991 1.56995 69.4831 1.90595C69.8831 2.22595 70.0831 2.67395 70.0831 3.24995C70.0831 3.82595 69.8831 4.28195 69.4831 4.61795C69.0991 4.93795 68.5711 5.09795 67.8991 5.09795C67.2271 5.09795 66.6911 4.93795 66.2911 4.61795C65.9071 4.28195 65.7151 3.82595 65.7151 3.24995C65.7151 2.67395 65.9071 2.22595 66.2911 1.90595C66.6911 1.56995 67.2271 1.40195 67.8991 1.40195ZM69.7711 7.32995V17.77C69.7711 18.442 69.8831 18.898 70.1071 19.138C70.3471 19.378 70.7471 19.498 71.3071 19.498V20.002C71.0191 19.986 70.5711 19.97 69.9631 19.954C69.3551 19.922 68.7391 19.906 68.1151 19.906C67.4911 19.906 66.8591 19.922 66.2191 19.954C65.5791 19.97 65.0991 19.986 64.7791 20.002V19.498C65.3391 19.498 65.7311 19.378 65.9551 19.138C66.1951 18.898 66.3151 18.442 66.3151 17.77V10.21C66.3151 9.48995 66.2031 8.96195 65.9791 8.62595C65.7711 8.27395 65.3711 8.09795 64.7791 8.09795V7.59395C65.2911 7.64195 65.7871 7.66595 66.2671 7.66595C66.9391 7.66595 67.5631 7.64195 68.1391 7.59395C68.7311 7.52995 69.2751 7.44195 69.7711 7.32995ZM77.0054 24.514C76.0134 24.514 75.1254 24.426 74.3414 24.25C73.5734 24.09 72.9654 23.834 72.5174 23.482C72.0854 23.146 71.8694 22.73 71.8694 22.234C71.8694 21.738 72.0934 21.29 72.5414 20.89C72.9894 20.506 73.6534 20.202 74.5334 19.978L74.7494 20.362C74.4454 20.602 74.2214 20.858 74.0774 21.13C73.9494 21.418 73.8854 21.714 73.8854 22.018C73.8854 22.69 74.1894 23.202 74.7974 23.554C75.4214 23.922 76.2614 24.106 77.3174 24.106C78.0374 24.106 78.6774 24.01 79.2374 23.818C79.8134 23.626 80.2614 23.338 80.5814 22.954C80.9174 22.57 81.0854 22.098 81.0854 21.538C81.0854 21.058 80.9094 20.65 80.5574 20.314C80.2054 19.994 79.5014 19.834 78.4454 19.834H76.9574C76.3014 19.834 75.7254 19.762 75.2294 19.618C74.7494 19.474 74.3734 19.25 74.1014 18.946C73.8294 18.626 73.6934 18.226 73.6934 17.746C73.6934 17.074 73.9574 16.482 74.4854 15.97C75.0134 15.458 75.7974 14.978 76.8374 14.53L77.0774 14.722C76.7734 14.914 76.4854 15.122 76.2134 15.346C75.9574 15.554 75.8294 15.826 75.8294 16.162C75.8294 16.674 76.1494 16.93 76.7894 16.93H79.4054C80.2854 16.93 81.0694 17.034 81.7574 17.242C82.4614 17.45 83.0134 17.794 83.4134 18.274C83.8294 18.738 84.0374 19.346 84.0374 20.098C84.0374 20.882 83.7814 21.61 83.2694 22.282C82.7734 22.954 82.0054 23.49 80.9654 23.89C79.9254 24.306 78.6054 24.514 77.0054 24.514ZM77.2454 14.89C76.3334 14.89 75.5174 14.754 74.7974 14.482C74.0774 14.21 73.5094 13.794 73.0934 13.234C72.6774 12.674 72.4694 11.954 72.4694 11.074C72.4694 10.194 72.6774 9.47395 73.0934 8.91395C73.5094 8.33795 74.0774 7.92195 74.7974 7.66595C75.5174 7.39395 76.3334 7.25795 77.2454 7.25795C78.1574 7.25795 78.9734 7.39395 79.6934 7.66595C80.4134 7.92195 80.9814 8.33795 81.3974 8.91395C81.8134 9.47395 82.0214 10.194 82.0214 11.074C82.0214 11.954 81.8134 12.674 81.3974 13.234C80.9814 13.794 80.4134 14.21 79.6934 14.482C78.9734 14.754 78.1574 14.89 77.2454 14.89ZM77.2454 14.458C77.6774 14.458 78.0134 14.218 78.2534 13.738C78.4934 13.242 78.6134 12.354 78.6134 11.074C78.6134 9.79395 78.4934 8.91395 78.2534 8.43395C78.0134 7.93795 77.6774 7.68995 77.2454 7.68995C76.8294 7.68995 76.4934 7.93795 76.2374 8.43395C75.9974 8.91395 75.8774 9.79395 75.8774 11.074C75.8774 12.354 75.9974 13.242 76.2374 13.738C76.4934 14.218 76.8294 14.458 77.2454 14.458ZM80.9894 9.32195L80.5094 9.15395C80.7494 8.52995 81.1334 8.00995 81.6614 7.59395C82.2054 7.17795 82.7894 6.96995 83.4134 6.96995C83.9254 6.96995 84.3094 7.11395 84.5654 7.40195C84.8374 7.67395 84.9734 8.03395 84.9734 8.48195C84.9734 8.96195 84.8454 9.32195 84.5894 9.56195C84.3334 9.78595 84.0454 9.89795 83.7254 9.89795C83.4534 9.89795 83.1974 9.80195 82.9574 9.60995C82.7334 9.41795 82.6054 9.12995 82.5734 8.74595C82.5414 8.34595 82.6774 7.83395 82.9814 7.20995L83.1494 7.35395C82.5414 7.57795 82.0854 7.84195 81.7814 8.14595C81.4774 8.43395 81.2134 8.82595 80.9894 9.32195ZM94.3271 7.25795C94.9991 7.25795 95.5431 7.34595 95.9591 7.52195C96.3751 7.68195 96.7111 7.90595 96.9671 8.19395C97.2231 8.49795 97.4071 8.89795 97.5191 9.39395C97.6311 9.87395 97.6871 10.514 97.6871 11.314V17.77C97.6871 18.442 97.7911 18.898 97.9991 19.138C98.2071 19.378 98.5671 19.498 99.0791 19.498V20.002C98.7911 19.986 98.3511 19.97 97.7591 19.954C97.1831 19.922 96.6151 19.906 96.0551 19.906C95.4791 19.906 94.9111 19.922 94.3511 19.954C93.7911 19.97 93.3671 19.986 93.0791 20.002V19.498C93.5111 19.498 93.8071 19.378 93.9671 19.138C94.1431 18.898 94.2311 18.442 94.2311 17.77V10.306C94.2311 9.90595 94.1991 9.56195 94.1351 9.27395C94.0711 8.96995 93.9431 8.73795 93.7511 8.57795C93.5751 8.40195 93.3031 8.31395 92.9351 8.31395C92.5191 8.31395 92.1351 8.43395 91.7831 8.67395C91.4311 8.91395 91.1431 9.24995 90.9191 9.68195C90.7111 10.098 90.6071 10.57 90.6071 11.098V17.77C90.6071 18.442 90.6951 18.898 90.8711 19.138C91.0471 19.378 91.3431 19.498 91.7591 19.498V20.002C91.5031 19.986 91.1031 19.97 90.5591 19.954C90.0311 19.922 89.4871 19.906 88.9271 19.906C88.3191 19.906 87.6951 19.922 87.0551 19.954C86.4151 19.97 85.9351 19.986 85.6151 20.002V19.498C86.1751 19.498 86.5671 19.378 86.7911 19.138C87.0311 18.898 87.1511 18.442 87.1511 17.77V10.21C87.1511 9.48995 87.0391 8.96195 86.8151 8.62595C86.6071 8.27395 86.2071 8.09795 85.6151 8.09795V7.59395C86.1271 7.64195 86.6231 7.66595 87.1031 7.66595C87.7751 7.66595 88.3991 7.64195 88.9751 7.59395C89.5671 7.52995 90.1111 7.44195 90.6071 7.32995V9.48995C90.9911 8.68995 91.5111 8.12195 92.1671 7.78595C92.8231 7.43395 93.5431 7.25795 94.3271 7.25795ZM101.551 7.25795C102.223 7.25795 102.767 7.34595 103.183 7.52195C103.599 7.68195 103.935 7.90595 104.191 8.19395C104.447 8.49795 104.631 8.89795 104.743 9.39395C104.855 9.87395 104.911 10.514 104.911 11.314V17.77C104.911 18.442 105.023 18.898 105.247 19.138C105.487 19.378 105.887 19.498 106.447 19.498V20.002C106.143 19.986 105.687 19.97 105.079 19.954C104.471 19.922 103.871 19.906 103.279 19.906C102.703 19.906 102.135 19.922 101.575 19.954C101.015 19.97 100.591 19.986 100.303 20.002V19.498C100.735 19.498 101.031 19.378 101.191 19.138C101.367 18.898 101.455 18.442 101.455 17.77V10.306C101.455 9.90595 101.415 9.56195 101.335 9.27395C101.271 8.96995 101.135 8.73795 100.927 8.57795C100.735 8.40195 100.431 8.31395 100.015 8.31395C99.5991 8.31395 99.2151 8.44195 98.8631 8.69795C98.5111 8.95395 98.2231 9.29795 97.9991 9.72995C97.7911 10.162 97.6791 10.642 97.6631 11.17L97.5431 9.70595C97.9751 8.74595 98.5431 8.09795 99.2471 7.76195C99.9671 7.42595 100.735 7.25795 101.551 7.25795ZM110.654 20.17C109.934 20.17 109.334 20.034 108.854 19.762C108.374 19.49 108.022 19.13 107.798 18.682C107.574 18.218 107.462 17.714 107.462 17.17C107.462 16.482 107.614 15.922 107.918 15.49C108.238 15.058 108.646 14.706 109.142 14.434C109.638 14.162 110.158 13.938 110.702 13.762C111.262 13.586 111.79 13.418 112.286 13.258C112.798 13.082 113.206 12.882 113.51 12.658C113.83 12.418 113.99 12.114 113.99 11.746V9.87395C113.99 9.45795 113.918 9.08995 113.774 8.76995C113.646 8.43395 113.438 8.17795 113.15 8.00195C112.878 7.82595 112.518 7.73795 112.07 7.73795C111.75 7.73795 111.43 7.78595 111.11 7.88195C110.79 7.96195 110.526 8.10595 110.318 8.31395C110.766 8.47395 111.11 8.72195 111.35 9.05795C111.606 9.37795 111.734 9.74595 111.734 10.162C111.734 10.706 111.542 11.138 111.158 11.458C110.79 11.778 110.35 11.938 109.838 11.938C109.262 11.938 108.822 11.762 108.518 11.41C108.23 11.042 108.086 10.602 108.086 10.09C108.086 9.62595 108.198 9.24195 108.422 8.93795C108.662 8.63395 108.99 8.34595 109.406 8.07395C109.854 7.81795 110.39 7.61795 111.014 7.47395C111.654 7.32995 112.342 7.25795 113.078 7.25795C113.814 7.25795 114.478 7.33795 115.07 7.49795C115.662 7.64195 116.158 7.91395 116.558 8.31395C116.926 8.68195 117.166 9.13795 117.278 9.68195C117.39 10.21 117.446 10.882 117.446 11.698V18.226C117.446 18.626 117.486 18.906 117.566 19.066C117.646 19.21 117.782 19.282 117.974 19.282C118.118 19.282 118.254 19.242 118.382 19.162C118.526 19.082 118.678 18.986 118.838 18.874L119.078 19.282C118.742 19.57 118.35 19.794 117.902 19.954C117.47 20.098 116.982 20.17 116.438 20.17C115.846 20.17 115.374 20.09 115.022 19.93C114.67 19.754 114.414 19.522 114.254 19.234C114.11 18.946 114.038 18.61 114.038 18.226C113.654 18.834 113.19 19.314 112.646 19.666C112.102 20.002 111.438 20.17 110.654 20.17ZM112.358 18.634C112.678 18.634 112.966 18.562 113.222 18.418C113.494 18.258 113.75 18.002 113.99 17.65V12.73C113.846 12.97 113.646 13.186 113.39 13.378C113.134 13.57 112.862 13.77 112.574 13.978C112.286 14.17 112.006 14.386 111.734 14.626C111.478 14.866 111.27 15.162 111.11 15.514C110.95 15.866 110.87 16.29 110.87 16.786C110.87 17.41 111.006 17.874 111.278 18.178C111.55 18.482 111.91 18.634 112.358 18.634Z" fill="#D9D9D9"/>
<path d="M55.0024 45.7832C56.7108 45.7832 57.5649 44.7337 57.5649 42.6348V36.127H59.1274V42.6348C59.1274 44.1712 58.7394 45.3223 57.9634 46.0879C57.2603 46.7806 56.2733 47.127 55.0024 47.127C53.0389 47.127 51.7655 46.3171 51.1821 44.6973C50.9738 44.1296 50.8696 43.4421 50.8696 42.6348V36.127H52.4321V42.6348C52.4321 44.7337 53.2889 45.7832 55.0024 45.7832ZM61.5571 36.127H63.1196V47.002H61.5571V36.127ZM69.4946 36.377H70.8853L65.8228 48.3301H64.4321L69.4946 36.377ZM76.3462 45.7832C78.0545 45.7832 78.9087 44.7337 78.9087 42.6348V36.127H80.4712V42.6348C80.4712 44.1712 80.0832 45.3223 79.3071 46.0879C78.604 46.7806 77.617 47.127 76.3462 47.127C74.3826 47.127 73.1092 46.3171 72.5259 44.6973C72.3175 44.1296 72.2134 43.4421 72.2134 42.6348V36.127H73.7759V42.6348C73.7759 44.7337 74.6326 45.7832 76.3462 45.7832ZM85.4712 41.4941L82.0337 36.127H83.7759L86.3462 40.291L88.9712 36.127H90.6118L87.1118 41.3926L90.9165 47.002H89.1821L86.2603 42.5488L83.5493 47.002H81.8384L85.4712 41.4941ZM99.4321 39.0176C99.4321 40.0332 100.177 40.541 101.667 40.541H106.448V41.8691H105.479V47.002H104.127L104.073 46.0098C103.515 46.515 102.781 46.8587 101.87 47.041C101.578 47.0983 101.234 47.127 100.838 47.127C100.448 47.127 100.036 47.0645 99.604 46.9395C99.1769 46.8092 98.8071 46.6113 98.4946 46.3457C97.8436 45.7936 97.5181 44.9967 97.5181 43.9551C97.5181 43.1895 97.8644 42.5072 98.5571 41.9082C98.828 41.6738 99.1717 41.4707 99.5884 41.2988V41.2754C99.0415 41.0566 98.6144 40.7493 98.3071 40.3535C98.005 39.9577 97.854 39.5514 97.854 39.1348C97.854 38.7181 97.9191 38.3379 98.0493 37.9941C98.1847 37.6504 98.4165 37.3405 98.7446 37.0645C99.4946 36.4395 100.64 36.127 102.182 36.127C103.068 36.127 103.786 36.1556 104.338 36.2129V37.6191C103.703 37.4993 103.068 37.4395 102.432 37.4395C101.802 37.4395 101.312 37.4785 100.963 37.5566C100.62 37.6296 100.333 37.7363 100.104 37.877C99.6561 38.1478 99.4321 38.528 99.4321 39.0176ZM101.292 45.877C102.411 45.877 103.307 45.5462 103.979 44.8848V41.8613L101.659 41.8691C100.841 41.8691 100.198 42.0905 99.729 42.5332C99.3071 42.929 99.0962 43.4108 99.0962 43.9785C99.0962 44.9212 99.5233 45.515 100.377 45.7598C100.648 45.8379 100.953 45.877 101.292 45.877ZM113.667 36.127H116.752C118.81 36.127 120.135 36.7363 120.729 37.9551C120.943 38.403 121.049 38.9342 121.049 39.5488C121.049 40.1634 120.94 40.6895 120.721 41.127C120.502 41.5645 120.208 41.9238 119.838 42.2051C119.12 42.7467 118.159 43.0176 116.956 43.0176H115.229V47.002H113.667V36.127ZM116.651 41.7676C117.594 41.7676 118.292 41.5853 118.745 41.2207C119.198 40.8561 119.424 40.2884 119.424 39.5176C119.424 38.4915 118.948 37.8301 117.995 37.5332C117.661 37.429 117.258 37.377 116.784 37.377H115.229V41.7676H116.651ZM128.018 40.3691C127.732 40.2858 127.388 40.2441 126.987 40.2441C126.591 40.2441 126.265 40.2858 126.01 40.3691C125.755 40.4473 125.531 40.5436 125.338 40.6582C124.984 40.8665 124.726 41.1009 124.565 41.3613V47.002H123.002V38.9395H124.502L124.565 40.0566C124.956 39.5671 125.526 39.1999 126.276 38.9551C126.547 38.8613 126.857 38.8145 127.206 38.8145C127.555 38.8145 127.825 38.8405 128.018 38.8926V40.3691ZM129.042 42.9551C129.042 41.6895 129.445 40.6634 130.252 39.877C131.008 39.1426 131.943 38.7754 133.057 38.7754C134.151 38.7754 135.065 39.1426 135.799 39.877C136.581 40.6582 136.971 41.6842 136.971 42.9551C136.971 44.2207 136.578 45.2415 135.792 46.0176C135.047 46.7572 134.133 47.127 133.049 47.127C131.95 47.127 131.018 46.7572 130.252 46.0176C129.445 45.2415 129.042 44.2207 129.042 42.9551ZM130.667 42.9551C130.667 44.2884 131.094 45.1947 131.948 45.6738C132.25 45.8405 132.612 45.9238 133.034 45.9238C133.456 45.9238 133.812 45.8405 134.104 45.6738C134.396 45.502 134.635 45.278 134.823 45.002C135.172 44.4707 135.346 43.7884 135.346 42.9551C135.346 41.6322 134.927 40.7259 134.088 40.2363C133.797 40.0645 133.448 39.9785 133.042 39.9785C132.635 39.9785 132.281 40.0645 131.979 40.2363C131.682 40.403 131.437 40.6243 131.245 40.9004C130.859 41.4421 130.667 42.127 130.667 42.9551ZM141.792 45.7676C141.963 45.8301 142.224 45.8613 142.573 45.8613C142.922 45.8613 143.213 45.8197 143.448 45.7363V46.9863C143.338 47.0124 143.18 47.028 142.971 47.0332L142.479 47.0488C142.37 47.0488 142.286 47.0488 142.229 47.0488C141.224 47.0488 140.482 46.7207 140.002 46.0645C139.617 45.5332 139.424 44.8301 139.424 43.9551V40.1348H138.268V39.4004L139.424 38.9395L139.799 36.9395H140.987V38.9395H143.487V40.1348H140.987V43.9473C140.987 44.9681 141.255 45.5749 141.792 45.7676ZM145.042 42.9551C145.042 41.6895 145.445 40.6634 146.252 39.877C147.008 39.1426 147.943 38.7754 149.057 38.7754C150.151 38.7754 151.065 39.1426 151.799 39.877C152.581 40.6582 152.971 41.6842 152.971 42.9551C152.971 44.2207 152.578 45.2415 151.792 46.0176C151.047 46.7572 150.133 47.127 149.049 47.127C147.95 47.127 147.018 46.7572 146.252 46.0176C145.445 45.2415 145.042 44.2207 145.042 42.9551ZM146.667 42.9551C146.667 44.2884 147.094 45.1947 147.948 45.6738C148.25 45.8405 148.612 45.9238 149.034 45.9238C149.456 45.9238 149.812 45.8405 150.104 45.6738C150.396 45.502 150.635 45.278 150.823 45.002C151.172 44.4707 151.346 43.7884 151.346 42.9551C151.346 41.6322 150.927 40.7259 150.088 40.2363C149.797 40.0645 149.448 39.9785 149.042 39.9785C148.635 39.9785 148.281 40.0645 147.979 40.2363C147.682 40.403 147.437 40.6243 147.245 40.9004C146.859 41.4421 146.667 42.127 146.667 42.9551ZM157.792 45.7676C157.963 45.8301 158.224 45.8613 158.573 45.8613C158.922 45.8613 159.213 45.8197 159.448 45.7363V46.9863C159.338 47.0124 159.18 47.028 158.971 47.0332L158.479 47.0488C158.37 47.0488 158.286 47.0488 158.229 47.0488C157.224 47.0488 156.482 46.7207 156.002 46.0645C155.617 45.5332 155.424 44.8301 155.424 43.9551V40.1348H154.268V39.4004L155.424 38.9395L155.799 36.9395H156.987V38.9395H159.487V40.1348H156.987V43.9473C156.987 44.9681 157.255 45.5749 157.792 45.7676ZM161.229 49.002C161.37 49.0436 161.56 49.0645 161.799 49.0645C162.044 49.0645 162.294 49.015 162.549 48.916C162.805 48.8223 163.026 48.6895 163.213 48.5176C163.526 48.2363 163.81 47.7936 164.065 47.1895L160.752 38.9395H162.417L164.745 45.3613L166.831 38.9395H168.479L165.167 47.9941C164.917 48.6712 164.57 49.1895 164.127 49.5488C163.544 50.0176 162.765 50.252 161.792 50.252C161.703 50.252 161.612 50.2467 161.518 50.2363L161.229 50.2051V49.002ZM171.26 50.127H169.698V38.9395H171.104L171.167 39.8613C171.479 39.4447 171.958 39.1348 172.604 38.9316C172.854 38.8535 173.107 38.8145 173.362 38.8145C173.622 38.8145 173.877 38.8431 174.127 38.9004C174.377 38.9525 174.625 39.041 174.87 39.166C175.114 39.2858 175.349 39.4473 175.573 39.6504C175.797 39.8483 175.995 40.0957 176.167 40.3926C176.542 41.0332 176.729 41.8275 176.729 42.7754C176.729 44.2233 176.229 45.3301 175.229 46.0957C174.344 46.778 173.265 47.1191 171.995 47.1191H171.604C171.479 47.1191 171.364 47.1165 171.26 47.1113V50.127ZM171.26 45.8457C171.406 45.8874 171.693 45.9082 172.12 45.9082C172.547 45.9082 172.948 45.8483 173.323 45.7285C173.698 45.6087 174.015 45.4238 174.276 45.1738C174.828 44.6426 175.104 43.8431 175.104 42.7754C175.104 41.7702 174.864 41.028 174.385 40.5488C174.031 40.1947 173.599 40.0176 173.088 40.0176C172.448 40.0176 171.917 40.2546 171.495 40.7285C171.385 40.8483 171.307 40.9551 171.26 41.0488V45.8457ZM180.745 36.5957C180.745 36.8926 180.646 37.1217 180.448 37.2832C180.255 37.4395 180.013 37.5176 179.721 37.5176C179.43 37.5176 179.187 37.4395 178.995 37.2832C178.807 37.1217 178.713 36.8926 178.713 36.5957C178.713 36.2936 178.807 36.0645 178.995 35.9082C179.187 35.752 179.43 35.6738 179.721 35.6738C180.013 35.6738 180.255 35.752 180.448 35.9082C180.646 36.0645 180.745 36.2936 180.745 36.5957ZM178.917 38.9395H180.479V47.002H178.917V38.9395ZM186.573 40.1582C185.797 40.1582 185.107 40.4212 184.502 40.9473V47.002H182.94V38.9395H184.385L184.495 39.8145C185.344 39.1478 186.221 38.8145 187.127 38.8145C188.086 38.8145 188.789 39.1009 189.237 39.6738C189.706 40.278 189.94 41.252 189.94 42.5957V47.002H188.377V42.5957C188.377 41.304 188.028 40.5332 187.331 40.2832C187.107 40.1999 186.854 40.1582 186.573 40.1582ZM196.87 50.0801C196.417 50.1947 195.833 50.252 195.12 50.252C194.411 50.252 193.893 50.1999 193.565 50.0957V48.7051C193.976 48.8822 194.479 48.9707 195.073 48.9707C195.672 48.9759 196.112 48.9368 196.393 48.8535C196.674 48.7702 196.896 48.6348 197.057 48.4473C197.349 48.1087 197.495 47.4967 197.495 46.6113V46.1973C197.099 46.5931 196.578 46.8691 195.932 47.0254C195.672 47.0879 195.411 47.1191 195.151 47.1191C194.89 47.1191 194.635 47.0905 194.385 47.0332C194.14 46.9759 193.896 46.8848 193.651 46.7598C193.406 46.6296 193.172 46.4629 192.948 46.2598C192.724 46.0514 192.526 45.7936 192.354 45.4863C191.969 44.8197 191.776 43.9993 191.776 43.0254C191.765 42.1243 192.026 41.3327 192.557 40.6504C193.015 40.0566 193.646 39.5957 194.448 39.2676C195.177 38.9655 195.966 38.8145 196.815 38.8145C197.664 38.8145 198.411 38.8561 199.057 38.9395V46.6113C199.057 48.5592 198.328 49.7155 196.87 50.0801ZM197.495 40.0801C197.161 40.0384 196.833 40.0176 196.51 40.0176C196.187 40.0176 195.825 40.0775 195.424 40.1973C195.023 40.3171 194.672 40.4993 194.37 40.7441C193.708 41.2806 193.377 42.041 193.377 43.0254C193.377 44.0931 193.635 44.8717 194.151 45.3613C194.536 45.7311 195.008 45.916 195.565 45.916C196.237 45.916 196.802 45.679 197.26 45.2051C197.37 45.0853 197.448 44.9785 197.495 44.8848V40.0801Z" fill="#D9D9D9"/>
<defs>
<clipPath id="clip0_166_135">
<rect width="34.6665" height="52" fill="white" transform="translate(0 0.00195312)"/>
</clipPath>
</defs>
</svg>
